<svg id="Capa_1" data-name="Capa 1" xmlns="http://www.w3.org/2000/svg" viewBox="0 0 500 500"><defs><style>.cls-1{fill:#fd392a;}.cls-2{fill:#fff;}</style></defs><path class="cls-1" d="M361.94,298.61c-23.6,39.34-85.12,88-132.33,88a55.73,55.73,0,0,1-10.73-1.43c-71.53-13.59-107.29-67.24-107.29-138.06,0-31.47,6.44-77.25,26.46-102.29C166.67,109.05,222.46,74,269.67,74c46.49,0,71.53,4.29,100.14,44.35,15,20.74,18.6,49.35,18.6,74.39C388.41,227.07,380.54,268.56,361.94,298.61Z"/><path d="M316.73,271c-14.07,23.45-50.74,52.45-78.88,52.45a32.59,32.59,0,0,1-6.4-.86c-42.64-8.1-64-40.08-64-82.29,0-18.77,3.84-46.06,15.78-61,17-21.32,50.31-42.22,78.46-42.22,27.71,0,42.64,2.56,59.69,26.44,9,12.37,11.09,29.42,11.09,44.35C332.51,228.37,327.82,253.11,316.73,271Z"/><path class="cls-1" d="M231.45,322.61a32.59,32.59,0,0,0,6.4.86c28.14,0,64.81-29,78.88-52.45a87.7,87.7,0,0,0,6.47-12.89,118.27,118.27,0,0,0-25.26-14.72A126.57,126.57,0,0,0,255.68,232c-7.24-.58-21.57,14.18-21.57,14.18s-13.08-11.1-19.37-8.69a85.35,85.35,0,0,0-30.44,20.12c-4.19,4.16-8.45,8.42-12.63,12.79C179.77,297.3,199.7,316.58,231.45,322.61Z"/><path class="cls-2" d="M197.43,312.66c-5.35-2-10.78-3.54-15.79-6-1.37-.67-2.19-4-2-6,.91-10.73,2.52-21.4,3.26-32.13.39-5.76,3.73-5.47,7.77-5.56s6.9.49,6.84,5.64C197.31,282.9,197.43,297.17,197.43,312.66Z"/><path class="cls-2" d="M226.56,281.34c12.88-1.7,12.92-1.71,14.3,8.65,1.42,10.65,2.76,21.32,4.25,32.9-5.28,0-10,.32-14.65-.19-1.43-.16-3.7-2.56-3.73-4C226.43,306.32,226.56,293.9,226.56,281.34Z"/><path class="cls-2" d="M265.24,318c0-12.25-.27-22.73.33-33.16.08-1.39,4.5-3.26,7.07-3.54,1.85-.2,5.35,1.51,5.72,3,2,7.89,3.32,15.94,4.51,24,.2,1.39-1.06,3.9-2.28,4.44C276.35,314.58,271.83,315.82,265.24,318Z"/><path class="cls-2" d="M304.9,297.52c-1.75-7.92-3.32-15-5-22.59l8.77-3.26C316,286.38,315.56,290.46,304.9,297.52Z"/><path class="cls-2" d="M205.7,209.83c-2-16.31.51-33.1-.48-51.12a116.36,116.36,0,0,0-21.95,20.63c-.74.91-1.44,1.88-2.11,2.88,3.88,10.2,8.57,20.2,10.89,30.64Z"/><path class="cls-2" d="M307.47,148.27c-2.5,17.11-4.86,32.79-6.77,48.62-.23,1.94,2.18,5.61,4.49,7.41,4,3.09,8.8,5.34,14,8.35,3.15-12,6.27-23.59,9.21-35.1a50.53,50.53,0,0,0-6.94-14A74.29,74.29,0,0,0,307.47,148.27Z"/><path class="cls-2" d="M286.75,175c1.51-11.77,3-23.41,4.51-35a84.44,84.44,0,0,0-20.09-2.68c-1.91,12.12-3.21,24.33-4.93,37.72Z"/><path class="cls-2" d="M226.66,166.61h20.55l6-28.88A92.9,92.9,0,0,0,226.65,146C226.59,152.72,226.66,159.56,226.66,166.61Z"/><polygon points="249.79 251.69 274.48 251.69 271.27 269.36 253.09 272.39 249.79 251.69"/><polygon points="275.82 426 276.57 407.77 289.98 410.7 291.74 424.22 275.82 426"/><polygon points="298.54 338.13 316.72 339.64 315.21 362.37 295.35 361.15 298.54 338.13"/><polygon points="335 400.74 333.76 386.69 315.13 387.86 316.13 403.2 335 400.74"/></svg>